<?xml version="1.0" standalone="no"?>
<!DOCTYPE svg PUBLIC "-//W3C//DTD SVG 20010904//EN"
 "http://www.w3.org/TR/2001/REC-SVG-20010904/DTD/svg10.dtd">
<svg version="1.0" xmlns="http://www.w3.org/2000/svg"
 width="1080.000000pt" height="1080.000000pt" viewBox="0 0 1080.000000 1080.000000"
 preserveAspectRatio="xMidYMid meet">

<g transform="translate(0.000000,1080.000000) scale(0.100000,-0.100000)"
fill="#000000" stroke="none">
<path d="M3630 5400 c0 -620 3 -940 10 -940 7 0 10 320 10 940 0 620 -3 940
-10 940 -7 0 -10 -320 -10 -940z"/>
<path d="M2218 6026 c-233 -67 -340 -324 -226 -539 39 -72 93 -121 174 -158
62 -28 65 -31 104 -109 22 -44 42 -80 45 -80 3 0 23 36 45 80 22 45 48 83 58
87 104 34 195 114 240 211 23 48 27 71 27 147 0 80 -4 97 -31 155 -61 128
-178 208 -316 215 -44 3 -92 -1 -120 -9z m175 -142 c64 -22 131 -96 147 -164
35 -146 -73 -281 -225 -281 -129 0 -226 96 -226 224 0 164 151 273 304 221z"/>
<path d="M2240 5753 c-60 -53 -48 -153 22 -189 78 -40 168 14 168 102 0 39 -5
51 -34 80 -29 29 -41 34 -80 34 -36 0 -52 -6 -76 -27z"/>
<path d="M6086 5905 c-57 -20 -87 -45 -116 -96 -22 -38 -25 -56 -25 -139 0
-132 17 -164 162 -307 124 -123 152 -168 153 -246 0 -40 -5 -53 -29 -78 -36
-36 -79 -38 -116 -6 -22 18 -27 34 -32 85 l-6 62 -68 0 -69 0 0 -62 c0 -86 15
-132 57 -179 78 -86 248 -93 342 -13 55 47 76 107 75 210 -2 125 -28 173 -170
311 -63 61 -121 127 -128 145 -41 97 -9 188 64 188 47 0 77 -36 85 -104 l7
-56 69 0 69 0 0 51 c0 122 -52 207 -142 234 -63 19 -130 19 -182 0z"/>
<path d="M4330 5395 l0 -515 75 0 75 0 2 223 3 222 105 5 105 5 3 67 3 67
-108 3 -108 3 -3 143 -3 142 136 0 135 0 0 75 0 75 -210 0 -210 0 0 -515z"/>
<path d="M4840 5395 l0 -515 220 0 220 0 0 70 0 69 -142 3 -143 3 0 160 0 160
113 3 112 3 0 69 0 70 -115 0 -115 0 0 134 c0 113 2 135 16 140 9 3 74 6 145
6 l129 0 0 54 c0 92 16 86 -226 86 l-214 0 0 -515z"/>
<path d="M5500 5906 c0 -2 -36 -227 -80 -500 -44 -274 -80 -504 -80 -512 0
-11 16 -14 70 -14 39 0 70 3 70 6 0 10 21 149 26 172 4 21 9 22 99 22 52 0 95
-3 95 -6 0 -10 21 -149 26 -171 4 -21 10 -23 79 -23 59 0 75 3 75 15 0 8 -36
235 -80 505 -44 270 -80 495 -80 500 0 6 -45 10 -110 10 -60 0 -110 -2 -110
-4z m140 -406 c17 -124 33 -240 37 -257 l5 -33 -76 0 c-65 0 -76 2 -76 17 0
22 58 449 66 482 3 13 7 22 9 19 2 -2 18 -105 35 -228z"/>
<path d="M6470 5840 l0 -70 83 0 84 0 6 -172 c4 -95 7 -296 7 -445 l0 -273 75
0 75 0 0 445 0 445 85 0 85 0 0 70 0 70 -250 0 -250 0 0 -70z"/>
<path d="M7290 5488 c0 -253 4 -438 10 -459 33 -120 156 -181 297 -149 68 15
135 75 152 135 7 26 11 188 11 468 l0 427 -70 0 -69 0 -3 -424 c-3 -401 -4
-425 -22 -445 -14 -16 -31 -21 -66 -21 -35 0 -52 5 -66 21 -18 20 -19 44 -22
445 l-3 424 -74 0 -75 0 0 -422z"/>
<path d="M7890 5396 l0 -516 81 0 80 0 -2 208 -1 207 80 7 c94 8 140 27 182
74 43 49 52 99 48 253 -3 123 -5 140 -28 181 -17 29 -41 53 -70 70 -42 23 -56
25 -207 28 l-163 4 0 -516z m291 355 c22 -18 24 -28 27 -126 3 -67 -1 -117 -8
-135 -13 -30 -52 -50 -101 -50 -59 0 -59 -1 -59 164 0 84 3 156 7 159 15 16
111 7 134 -12z"/>
<path d="M1600 4981 c-17 -15 -30 -32 -30 -36 0 -5 11 -23 26 -42 25 -33 25
-33 112 -33 l88 0 64 -87 c36 -48 78 -102 94 -120 l28 -33 335 0 335 0 23 28
c13 15 55 68 92 117 l68 90 93 5 c78 4 96 8 108 24 21 29 17 72 -8 96 -21 20
-31 20 -710 20 l-688 0 -30 -29z m1043 -117 c3 -4 -8 -26 -25 -50 l-31 -44
-271 0 -271 1 -32 43 c-18 24 -29 46 -26 50 8 8 648 8 656 0z"/>
</g>
</svg>
